<?xml version="1.0" standalone="no"?>
<!DOCTYPE svg PUBLIC "-//W3C//DTD SVG 20010904//EN"
 "http://www.w3.org/TR/2001/REC-SVG-20010904/DTD/svg10.dtd">
<svg version="1.0" xmlns="http://www.w3.org/2000/svg"
 width="1024.000000pt" height="1024.000000pt" viewBox="0 0 1024.000000 1024.000000"
 preserveAspectRatio="xMidYMid meet">

<g transform="translate(0.000000,1024.000000) scale(0.100000,-0.100000)"
fill="#BC2637" stroke="none">
<path d="M3815 8033 c-610 -52 -1185 -327 -1629 -778 -361 -367 -612 -806
-749 -1315 -176 -651 -127 -1383 133 -1995 150 -354 344 -641 620 -915 402
-400 824 -632 1356 -744 207 -44 250 -45 1590 -48 1249 -3 1282 -3 1303 16 21
19 21 24 21 516 0 413 -2 499 -14 516 -14 19 -42 19 -1303 24 -1426 6 -1355 3
-1573 72 -264 84 -455 203 -651 404 -156 160 -273 334 -359 533 -129 298 -179
572 -166 921 11 317 64 543 191 805 237 493 628 812 1134 927 96 22 99 22
1401 25 l1305 3 18 21 c16 20 17 59 17 498 0 396 -2 480 -14 497 -14 19 -39
19 -1303 20 -708 0 -1306 -1 -1328 -3z"/>
<path d="M7503 7283 c-7 -2 -56 -68 -110 -146 -150 -221 -714 -1043 -843
-1229 -63 -92 -151 -219 -195 -283 -43 -63 -80 -115 -80 -115 -2 0 -163 235
-534 780 -148 217 -277 405 -286 418 l-16 22 -581 -2 c-662 -3 -626 2 -572
-83 32 -50 352 -517 806 -1177 l287 -418 -505 -754 c-277 -415 -504 -762 -504
-770 0 -8 9 -20 19 -26 13 -6 217 -10 594 -10 l574 0 19 23 c11 12 173 253
360 534 186 282 342 513 345 513 3 0 44 -57 92 -127 47 -71 140 -209 207 -308
206 -303 362 -534 632 -932 16 -23 33 -45 39 -49 5 -3 311 -6 680 -6 730 0
710 -1 695 54 -3 12 -106 165 -227 338 -121 173 -281 403 -355 510 -710 1029
-694 1004 -681 1021 7 10 53 77 104 151 50 73 161 234 247 358 85 124 204 296
263 383 59 86 136 198 170 247 108 156 607 882 661 961 29 42 52 81 52 87 0 6
-7 18 -16 26 -14 14 -88 16 -672 15 -361 0 -663 -3 -669 -6z"/>
</g>
</svg>
